<svg width="47" height="47" viewBox="0 0 47 47" fill="none" xmlns="http://www.w3.org/2000/svg">
<circle cx="23.5" cy="23.5" r="20.5" stroke="#E5E8F7" stroke-width="5"/>
<path d="M44 24C44 12.402 35.0457 3 24 3" stroke="#5ECA39" stroke-width="4"/>
<path opacity="0.6" d="M15.6759 28.144C15.1399 28.144 14.6559 28.048 14.2239 27.856C13.7919 27.656 13.4439 27.36 13.1799 26.968C12.9239 26.576 12.7879 26.088 12.7719 25.504H13.7919C13.7999 25.984 13.9679 26.4 14.2959 26.752C14.6239 27.096 15.0839 27.268 15.6759 27.268C16.2679 27.268 16.7119 27.104 17.0079 26.776C17.3119 26.448 17.4639 26.052 17.4639 25.588C17.4639 25.196 17.3679 24.876 17.1759 24.628C16.9919 24.38 16.7399 24.196 16.4199 24.076C16.1079 23.956 15.7639 23.896 15.3879 23.896H14.7639V23.044H15.3879C15.9319 23.044 16.3559 22.92 16.6599 22.672C16.9719 22.424 17.1279 22.076 17.1279 21.628C17.1279 21.252 17.0039 20.944 16.7559 20.704C16.5159 20.456 16.1559 20.332 15.6759 20.332C15.2119 20.332 14.8399 20.472 14.5599 20.752C14.2799 21.024 14.1239 21.368 14.0919 21.784H13.0719C13.0959 21.328 13.2159 20.924 13.4319 20.572C13.6559 20.22 13.9599 19.948 14.3439 19.756C14.7279 19.556 15.1719 19.456 15.6759 19.456C16.2199 19.456 16.6719 19.552 17.0319 19.744C17.3999 19.936 17.6759 20.192 17.8599 20.512C18.0519 20.832 18.1479 21.184 18.1479 21.568C18.1479 21.992 18.0319 22.38 17.7999 22.732C17.5679 23.076 17.2199 23.308 16.7559 23.428C17.2519 23.532 17.6639 23.768 17.9919 24.136C18.3199 24.504 18.4839 24.988 18.4839 25.588C18.4839 26.052 18.3759 26.48 18.1599 26.872C17.9519 27.256 17.6399 27.564 17.2239 27.796C16.8079 28.028 16.2919 28.144 15.6759 28.144ZM23.3906 28.144C22.6466 28.144 22.0026 27.964 21.4586 27.604C20.9226 27.236 20.5106 26.728 20.2226 26.08C19.9346 25.424 19.7906 24.664 19.7906 23.8C19.7906 22.936 19.9346 22.18 20.2226 21.532C20.5106 20.876 20.9226 20.368 21.4586 20.008C22.0026 19.64 22.6466 19.456 23.3906 19.456C24.1346 19.456 24.7746 19.64 25.3106 20.008C25.8466 20.368 26.2586 20.876 26.5466 21.532C26.8346 22.18 26.9786 22.936 26.9786 23.8C26.9786 24.664 26.8346 25.424 26.5466 26.08C26.2586 26.728 25.8466 27.236 25.3106 27.604C24.7746 27.964 24.1346 28.144 23.3906 28.144ZM23.3906 27.256C23.8786 27.256 24.3146 27.12 24.6986 26.848C25.0906 26.568 25.3946 26.172 25.6106 25.66C25.8346 25.14 25.9466 24.52 25.9466 23.8C25.9466 23.08 25.8346 22.464 25.6106 21.952C25.3946 21.44 25.0906 21.048 24.6986 20.776C24.3146 20.496 23.8786 20.356 23.3906 20.356C22.8946 20.356 22.4546 20.496 22.0706 20.776C21.6866 21.048 21.3826 21.44 21.1586 21.952C20.9346 22.464 20.8226 23.08 20.8226 23.8C20.8226 24.52 20.9346 25.14 21.1586 25.66C21.3826 26.172 21.6866 26.568 22.0706 26.848C22.4546 27.12 22.8946 27.256 23.3906 27.256ZM29.9469 23.5C29.5869 23.5 29.2589 23.42 28.9629 23.26C28.6749 23.092 28.4469 22.86 28.2789 22.564C28.1109 22.26 28.0269 21.9 28.0269 21.484C28.0269 21.068 28.1109 20.712 28.2789 20.416C28.4549 20.112 28.6869 19.88 28.9749 19.72C29.2709 19.552 29.5989 19.468 29.9589 19.468C30.3189 19.468 30.6429 19.552 30.9309 19.72C31.2189 19.88 31.4469 20.112 31.6149 20.416C31.7829 20.712 31.8669 21.068 31.8669 21.484C31.8669 21.9 31.7789 22.26 31.6029 22.564C31.4349 22.86 31.2069 23.092 30.9189 23.26C30.6309 23.42 30.3069 23.5 29.9469 23.5ZM29.2029 28L34.0869 19.6H35.0949L30.2109 28H29.2029ZM29.9469 22.72C30.2269 22.72 30.4709 22.616 30.6789 22.408C30.8949 22.2 31.0029 21.892 31.0029 21.484C31.0029 21.068 30.8989 20.756 30.6909 20.548C30.4829 20.332 30.2389 20.224 29.9589 20.224C29.6789 20.224 29.4269 20.332 29.2029 20.548C28.9869 20.756 28.8789 21.068 28.8789 21.484C28.8789 21.892 28.9869 22.2 29.2029 22.408C29.4189 22.616 29.6669 22.72 29.9469 22.72ZM34.4349 28.144C34.0749 28.144 33.7469 28.064 33.4509 27.904C33.1629 27.736 32.9349 27.504 32.7669 27.208C32.5989 26.904 32.5149 26.544 32.5149 26.128C32.5149 25.712 32.5989 25.356 32.7669 25.06C32.9429 24.756 33.1749 24.524 33.4629 24.364C33.7509 24.196 34.0749 24.112 34.4349 24.112C34.7949 24.112 35.1189 24.196 35.4069 24.364C35.6949 24.524 35.9229 24.756 36.0909 25.06C36.2589 25.356 36.3429 25.712 36.3429 26.128C36.3429 26.544 36.2589 26.904 36.0909 27.208C35.9229 27.504 35.6949 27.736 35.4069 27.904C35.1189 28.064 34.7949 28.144 34.4349 28.144ZM34.4229 27.364C34.7109 27.364 34.9589 27.26 35.1669 27.052C35.3829 26.844 35.4909 26.536 35.4909 26.128C35.4909 25.712 35.3869 25.4 35.1789 25.192C34.9709 24.984 34.7229 24.88 34.4349 24.88C34.1549 24.88 33.9069 24.984 33.6909 25.192C33.4749 25.4 33.3669 25.712 33.3669 26.128C33.3669 26.536 33.4709 26.844 33.6789 27.052C33.8949 27.26 34.1429 27.364 34.4229 27.364Z" fill="#282B42"/>
</svg>
